<?xml version="1.0" encoding="utf-8"?>
<!-- Generator: Adobe Illustrator 19.0.0, SVG Export Plug-In . SVG Version: 6.00 Build 0)  -->
<svg version="1.1" id="Layer_1" xmlns="http://www.w3.org/2000/svg" xmlns:xlink="http://www.w3.org/1999/xlink" x="0px" y="0px"
	 viewBox="0 0 50 50" style="enable-background:new 0 0 50 50;" xml:space="preserve">
<style type="text/css">
	.st0{fill:#07A64F;}
</style>
<g id="XMLID_47_">
	<path id="XMLID_58_" class="st0" d="M15.8,25c0.7-0.8,1.5-1.6,2.1-2.3c0.5-0.6,1.1-0.9,1.9-0.9c3.2,0,6.4,0,9.6,0
		c1.2,0,2.2,0.4,3.2,1.2c0.9,0.8,1.8,1.4,2.8,2.1c0.2,0.2,0.7,0.3,0.9,0.2c0.4-0.2,0.8-0.6,1-1c0.2-0.6,0.6-1,1-1.4
		c0.9-0.9,1.8-1.9,2.7-2.8c0.2-0.2,0.5-0.5,0.8-0.6c0.9-0.4,1.8-0.2,2.4,0.7c0.9,1.6,1.8,3.2,2.6,4.9c0.8,1.7,1.7,3.3,2.5,5
		c0.5,1.1,0.3,1.7-0.6,2.5c-1.1,0.8-2.2,1.7-3.3,2.5c-0.5,0.4-1.1,0.6-1.7,0.6c-0.1,0-0.3,0.1-0.5,0.2c-0.6,0.5-1.3,1.1-1.9,1.6
		C41,37.6,41,37.8,41,38c0.2,0.8,0.2,1.6-0.1,2.4c-0.4,1.2-1.7,2.2-3.2,1.6c-0.1,0-0.2-0.1-0.3-0.1c-1,2.6-1.9,3.1-4.3,2.5
		c-0.3,0.9-0.8,1.6-1.6,2c-0.9,0.5-1.8,0.3-2.7-0.1c-0.6,0.9-1.1,1.9-2.3,2.1c-1.1,0.2-2-0.4-2.8-1.3c-0.6,1.4-1.7,1.7-2.9,1.6
		c-1.3-0.1-2.3-0.8-2.6-2.1c-1,0.3-2,0.5-3,0c-1-0.5-1.3-1.5-1.5-2.5c-2.6-0.2-3.1-0.6-3.5-2.9c-1.3-0.1-2.4-0.6-2.9-2
		C7,38,7.3,36.9,8.2,35.8c-0.4-0.3-0.7-0.6-1.3-0.4c-0.5,0.1-1.2,0-1.6-0.2c-1.4-0.8-2.8-1.7-4.2-2.6c-0.6-0.4-0.7-1.7-0.3-2.5
		c0.9-1.7,1.7-3.5,2.5-5.2c0.8-1.6,1.6-3.3,2.3-5c0.6-1.2,1.8-1.5,2.9-0.7c1.2,0.9,2.4,1.7,3.6,2.6c0.4,0.3,0.7,0.6,0.7,1.1
		c0,0.3,0.1,0.4,0.3,0.6C14,24,14.9,24.5,15.8,25z M9.1,34.8c0.8-1.1,1.6-2.1,3-2.2c1.4-0.1,2.4,0.6,3,1.9c0.9-1.2,1.9-2,3.4-1.8
		c1.6,0.2,2.2,1.3,2.4,2.8c2.4-0.1,3.7,1.6,3.4,3.8c0.6-0.1,0.8,0.3,1.1,0.6c1.3,1.6,2.6,3.1,3.9,4.7c0.4,0.5,0.8,0.6,1.3,0.6
		c0.6,0,0.9-0.4,1.1-0.9c0.2-0.5,0.4-1,0-1.5c-1.4-1.6-2.7-3.2-4-4.8c-0.1-0.1-0.2-0.2-0.3-0.4c-0.2-0.3-0.1-0.7,0.2-0.9
		c0.3-0.3,0.7-0.2,1,0c0.1,0.1,0.2,0.2,0.3,0.4c1.6,1.9,3.1,3.8,4.7,5.6c0.4,0.5,1.5,0.7,1.9,0.2c0.5-0.4,0.7-1.6,0.3-2.1
		c-1.1-1.3-2.2-2.7-3.3-4c-0.4-0.5-0.8-1-1.2-1.5c-0.3-0.4-0.2-0.8,0.1-1.1c0.3-0.2,0.8-0.2,1.1,0.1c0.1,0.1,0.1,0.1,0.2,0.2
		c1.4,1.7,2.8,3.4,4.2,5.1c0.5,0.6,1.1,0.8,1.8,0.9c0.5,0.1,0.8-0.2,1-0.6c0.3-0.7,0.3-1.4-0.2-2.1c-1.3-1.9-2.8-3.6-4.5-5.1
		c-1.2-1.1-2.6-2.2-4.1-2.9c-1.3-0.6-2.6-0.9-4.1-0.4c-0.5,0.2-1.2,0.2-1.7,0.2c-1.2-0.1-2.4-0.4-3.6-0.6c-0.3-0.1-0.5,0-0.7,0.1
		c-1.8,1.3-3.8,1.7-5.9,1c-1.5-0.5-1.8-1.9-0.7-3.1c0.2-0.2,0.4-0.5,0.7-0.7c-0.8-0.5-1.6-1-2.5-1.4c-1.4,3.2-2.7,6.3-4.1,9.5
		C8.5,34.4,8.7,34.5,9.1,34.8z M37.8,26c-0.9,1.3-2,0.9-3.1,0.4c-0.3-0.2-0.7-0.3-0.9-0.6c-0.8-0.6-1.5-1.2-2.3-1.8
		c-0.6-0.5-1.2-0.8-2-0.7c-3.2,0-6.4,0-9.6,0c-0.3,0-0.6,0.1-0.8,0.3c-0.7,0.8-1.4,1.5-2.1,2.3c-0.2,0.2-0.3,0.5-0.5,0.7
		c-0.5,0.5-1,0.9-1.4,1.4c-0.4,0.4-0.3,0.5,0.2,0.7c1.8,0.6,3.4,0.3,4.8-1c0.5-0.4,0.9-0.5,1.5-0.3c1.8,0.6,3.6,1,5.6,0.5
		c0.2-0.1,0.5-0.1,0.7-0.1c1.9-0.1,3.5,0.6,5,1.6c2.5,1.6,4.5,3.7,6.3,6c0.3,0.4,0.6,0.7,0.9,1.1c0.8-0.7,1.6-1.3,2.3-1.9
		C40.9,31.7,39.4,28.9,37.8,26z M11.3,23.1c-0.1-0.1-0.1-0.1-0.2-0.1c-1.2-0.9-2.4-1.7-3.6-2.6c-0.3-0.2-0.5-0.1-0.7,0.2
		C5.2,24,3.6,27.3,2,30.7c-0.1,0.2-0.1,0.7,0.1,0.9c1.2,0.8,2.5,1.6,3.8,2.4c0.5,0.3,0.7,0.2,0.9-0.3c1.1-2.4,2.1-4.9,3.2-7.3
		C10.4,25.2,10.9,24.2,11.3,23.1z M44,34.3c0.1-0.1,0.2-0.1,0.2-0.1c1.2-1,2.4-1.9,3.6-2.9c0.1-0.1,0.1-0.3,0-0.5
		c-1.1-2.3-2.3-4.6-3.4-6.9c-0.5-1-1-2-1.6-2.9c-0.2-0.4-0.4-0.4-0.8-0.1c-0.1,0.1-0.2,0.2-0.3,0.3c-0.9,1-1.8,1.9-2.7,2.8
		c-0.4,0.4-0.4,0.6-0.2,1c1.6,2.8,3.1,5.6,4.6,8.4C43.7,33.8,43.9,34.1,44,34.3z M21.2,37c-0.3-0.1-0.6,0.1-0.8,0.4
		c-1.5,1.8-3,3.7-4.6,5.5c-0.5,0.6-0.5,1.2-0.3,1.8c0.2,0.6,0.6,0.9,1.2,0.8c0.6,0,1-0.2,1.4-0.7c1.4-1.8,2.9-3.5,4.4-5.2
		c0.5-0.6,0.6-1.2,0.3-1.9C22.5,37.2,22,37,21.2,37z M13.1,42.7c0.6,0,1.1-0.2,1.5-0.7c1.5-1.8,3-3.6,4.5-5.4
		c0.5-0.6,0.6-1.2,0.2-1.9c-0.2-0.4-0.5-0.6-0.9-0.6c-0.7,0-1.2,0.3-1.7,0.8c-0.8,0.8-1.3,1.7-2.1,2.5c-0.9,0.9-1.7,2-2.5,3
		c-0.4,0.5-0.4,1.1-0.1,1.7C12.1,42.7,12.6,42.7,13.1,42.7z M8.6,38.3c0,0,0.1,0,0.1,0.1c0,0.9,0.5,1.5,1.4,1.6
		c0.2,0,0.5-0.1,0.6-0.2c1-1.1,1.9-2.3,2.9-3.5c0.1-0.1,0.2-0.2,0.2-0.3c0-0.6-0.1-1.2-0.6-1.6c-0.5-0.4-1.1-0.3-1.6,0
		c-0.2,0.1-0.5,0.3-0.7,0.5c-0.6,0.7-1.2,1.4-1.7,2.1C9,37.3,8.8,37.8,8.6,38.3z M19.5,45.5c0.1,0.4,0.1,0.7,0.2,1.1
		c0.1,0.5,0.4,0.8,0.9,0.8c0.6,0,1.2,0.1,1.6-0.4c0.7-1.1,1.5-2.1,2.2-3.2c0.4-0.7,0.2-1.4-0.6-1.7c-0.3-0.1-0.6-0.1-0.9-0.2
		c-0.3-0.1-0.5,0-0.7,0.3c-0.8,0.9-1.6,1.9-2.4,2.8C19.6,45.1,19.6,45.4,19.5,45.5z M26.2,43.1c0,0-0.1,0-0.1,0
		c0.1,1.2-0.8,1.9-1.4,2.9c0.2,0.1,0.4,0.3,0.5,0.4c0.1,0.1,0.2,0.2,0.3,0.3c0.5,0.3,0.8,0.4,1.2-0.1c0.4-0.4,0.7-0.9,1-1.4
		c0-0.1,0-0.3,0-0.3C27.2,44.4,26.7,43.8,26.2,43.1z"/>
	<path id="XMLID_50_" class="st0" d="M30.5,12.3c-0.5,0.4-1,0.7-1.4,1c-0.1,0.1-0.1,0.3,0,0.5c0.5,1.5,1,3.1,1.5,4.6
		c0,0.1,0,0.2,0.1,0.2c0.1,0.3,0.2,0.7-0.1,1c-0.4,0.3-0.7,0.1-1.1-0.2c-1.1-0.8-2.2-1.7-3.4-2.5c-0.3-0.3-0.7-0.7-1.1-0.7
		c-0.4,0-0.7,0.4-1.1,0.7c-1.1,0.8-2.2,1.6-3.3,2.4c-0.3,0.2-0.7,0.4-1.1,0.2c-0.4-0.3-0.4-0.7-0.2-1.1c0.3-1,0.6-1.9,1-3
		c-0.5,0.5-0.9,0.4-1.2,0.1c-1.1-0.8-2.2-1.6-3.3-2.4c-0.2-0.2-0.4-0.2-0.7,0c-1.1,0.8-2.2,1.6-3.3,2.4c-0.3,0.2-0.7,0.4-1.1,0.1
		c-0.4-0.3-0.4-0.6-0.2-1c0.4-1.3,0.8-2.6,1.3-3.9c0.1-0.3,0-0.5-0.2-0.6c-1.1-0.8-2.2-1.6-3.3-2.4c-0.3-0.2-0.6-0.5-0.4-1
		c0.2-0.5,0.5-0.6,0.9-0.6c1.4,0,2.8,0,4.1,0c0.3,0,0.4-0.1,0.5-0.4c0.4-1.3,0.8-2.6,1.2-3.9c0.1-0.4,0.3-0.7,0.8-0.7
		c0.4,0,0.6,0.3,0.7,0.7c0.4,1.3,0.9,2.6,1.3,4c0.1,0.3,0.2,0.4,0.5,0.4c1.3,0,2.7,0,4,0c0.4,0,0.8,0,1.1,0.5
		c0.4-1.2,0.7-2.2,1.1-3.3C24.3,3,24.5,2.7,25,2.7c0.5,0,0.7,0.4,0.8,0.8c0.3,1.1,0.7,2.2,1.1,3.4c0.2-0.6,0.6-0.7,1.1-0.7
		c1.3,0,2.6,0,3.9,0c0.4,0,0.5-0.1,0.6-0.5c0.4-1.3,0.8-2.5,1.2-3.8c0.1-0.4,0.4-0.8,0.9-0.8c0.5,0,0.6,0.4,0.8,0.8
		c0.4,1.3,0.8,2.6,1.2,3.9c0.1,0.3,0.2,0.4,0.6,0.4c1.4,0,2.7,0,4.1,0c0.4,0,0.8,0.1,0.9,0.5c0.1,0.4-0.1,0.7-0.4,1
		c-1.1,0.8-2.2,1.6-3.4,2.4c-0.3,0.2-0.3,0.4-0.2,0.7c0.4,1.3,0.8,2.6,1.3,3.9c0.1,0.2,0.1,0.4,0.1,0.6c0,0.5-0.4,0.7-0.9,0.5
		c-0.2-0.1-0.3-0.2-0.5-0.3c-1.1-0.8-2.2-1.6-3.3-2.4c-0.2-0.2-0.4-0.2-0.7,0c-1.1,0.8-2.2,1.6-3.3,2.4c-0.3,0.2-0.7,0.4-1.1,0.1
		c-0.4-0.3-0.4-0.6-0.2-1C30,13.9,30.2,13.2,30.5,12.3z M19.2,10.1c0.1,0.1,0.1,0.1,0.1,0.2c0.9,0.7,1.8,1.3,2.7,2
		c0.7,0.5,0.7,0.7,0.5,1.4c-0.3,1-0.6,2-1,3c0,0.1,0,0.2-0.1,0.4c1.1-0.8,2.1-1.4,3-2.2c0.4-0.3,0.7-0.3,1.1,0
		c0.9,0.6,1.7,1.3,2.6,1.9c0.1,0.1,0.2,0.2,0.5,0.3c-0.4-1.2-0.8-2.4-1.2-3.5c-0.2-0.5-0.1-0.9,0.4-1.2c0.9-0.6,1.8-1.3,2.7-1.9
		c0.1-0.1,0.2-0.1,0.3-0.3c-1.3,0-2.5,0-3.7,0c-0.5,0-0.8-0.2-0.9-0.7c-0.2-0.6-0.4-1.2-0.7-1.8c-0.2-0.6-0.4-1.1-0.7-1.8
		c-0.1,0.3-0.2,0.4-0.2,0.6c-0.3,0.9-0.6,1.9-0.9,2.8c-0.2,0.7-0.4,0.8-1.1,0.8C21.6,10.1,20.5,10.1,19.2,10.1z M39.2,7.8
		c0,0,0-0.1,0-0.1c-0.7,0-1.3,0-2,0c-1.4,0-1.4,0-1.8-1.3c-0.2-0.6-0.4-1.3-0.6-1.9c-0.4,0.8-0.6,1.6-0.9,2.4
		c-0.2,0.7-0.4,0.8-1.1,0.8c-0.8,0-1.7,0-2.5,0c0.2,0.2,0.4,0.4,0.5,0.5c0.4,0.4,0.9,0.6,1.5,0.5c0.3,0,0.5,0,0.8,0
		c0.4,0,0.6,0.1,0.8,0.5c0.1,0.4,0,0.7-0.3,0.9c-0.3,0.2-0.6,0.4-0.8,0.6c-0.1,0.1-0.2,0.2-0.3,0.3c-0.2,0.6-0.4,1.3-0.7,1.9
		c0.8-0.4,1.5-0.9,2.2-1.4c0.5-0.4,0.8-0.4,1.3,0c0.7,0.5,1.4,1,2.1,1.5c-0.2-0.8-0.4-1.6-0.7-2.4c-0.2-0.7-0.1-0.8,0.4-1.3
		C37.8,8.8,38.5,8.3,39.2,7.8z M18.3,13.2c-0.3-0.9-0.5-1.6-0.8-2.3c-0.2-0.3-0.6-0.6-1-0.8c0,0-0.1-0.1-0.1-0.1
		c-0.1-0.3-0.3-0.6-0.3-0.9c0-0.3,0.4-0.5,0.7-0.5c0.5,0,1,0,1.5,0c0.7,0.1,1.1-0.5,1.5-0.8c-0.9,0-1.8-0.1-2.7,0
		c-0.5,0-0.8-0.2-0.9-0.7c-0.2-0.8-0.5-1.5-0.7-2.2c0-0.1-0.1-0.2-0.2-0.4c-0.3,0.9-0.6,1.7-0.8,2.6c-0.2,0.6-0.4,0.8-1,0.8
		c-0.9,0-1.7,0-2.6,0c0.7,0.6,1.4,1.1,2,1.6c0.6,0.5,0.7,0.6,0.5,1.4c-0.3,0.8-0.5,1.6-0.8,2.4c0.8-0.4,1.5-0.9,2.2-1.4
		c0.6-0.4,0.6-0.4,1.2,0C16.8,12.1,17.5,12.6,18.3,13.2z M20.4,15.2c0.2-0.7,0.4-1.2,0.6-1.7c0-0.1,0-0.3-0.1-0.3
		c-0.4-0.3-0.9-0.7-1.4-1.1C19.8,13.2,20.1,14.1,20.4,15.2z M28.8,8.7c-0.6-0.4-1.1-0.8-1.7-1.2C27.3,8.7,27.5,8.8,28.8,8.7z
		 M21.5,8.5c1.1,0.1,1.1,0.1,1.2-0.9C22.3,7.9,21.9,8.2,21.5,8.5z"/>
	<path id="XMLID_28_" class="st0" d="M4.8,31.2c0,0.4-0.3,0.7-0.7,0.7c-0.5,0-1.1-0.6-1.1-1c0-0.3,0.3-0.7,0.7-0.7
		C4.2,30.2,4.8,30.7,4.8,31.2z"/>
	<path id="XMLID_27_" class="st0" d="M47.2,30.8c0,0.5-0.8,1.2-1.3,1c0,0-0.1,0-0.1,0c-0.3-0.1-0.6-0.5-0.5-0.9
		c0.1-0.4,0.8-0.9,1.2-0.9C47,30.1,47.2,30.5,47.2,30.8z"/>
</g>
</svg>
