<?xml version="1.0" encoding="utf-8"?>
<!-- Generator: Adobe Illustrator 19.0.0, SVG Export Plug-In . SVG Version: 6.00 Build 0)  -->
<svg version="1.1" id="Layer_1" xmlns="http://www.w3.org/2000/svg" xmlns:xlink="http://www.w3.org/1999/xlink" x="0px" y="0px"
	 viewBox="0 0 50 50" style="enable-background:new 0 0 50 50;" xml:space="preserve">
<style type="text/css">
	.st0{fill:#07A64F;}
</style>
<g>
	<path id="XMLID_34_" class="st0" d="M2.6,35.6c0-2.4,0-4.9,0-7.3c0-0.2,0-0.3,0-0.5c0-0.1-0.2-0.2-0.3-0.2c-0.1,0-0.2,0.1-0.3,0.2
		c0,0.1,0,0.3,0,0.4c0,1.9,0,3.8,0,5.7c0,0.7-0.2,0.9-0.7,0.9c-0.5,0-0.8-0.4-0.8-0.9c0-2.4,0-4.8,0-7.3c0-0.7,0.8-1.7,1.6-1.7
		c2,0,4,0,6.1,0c0.9,0,1.6,0.7,1.6,1.6c0,2.5,0,5,0,7.5c0,0.5-0.3,0.8-0.8,0.8c-0.5,0-0.7-0.3-0.7-0.8c0-1.9,0-3.8,0-5.8
		c0-0.1,0-0.3,0-0.4c0-0.1-0.1-0.2-0.2-0.3c-0.1,0.1-0.2,0.2-0.2,0.3c0,0.2,0,0.3,0,0.5c0,4.8,0,9.5,0,14.3c0,0.2,0,0.4,0,0.6
		c-0.1,0.7-0.5,1.1-1.1,1.1c-0.7,0-1-0.3-1.2-1c0-0.2,0-0.5,0-0.7c0-2.3,0-4.5,0-6.8c0-0.1,0-0.2,0-0.3c-0.1-0.2-0.2-0.3-0.3-0.5
		C5.1,35.1,5,35.3,5,35.4c0,1.3,0,2.6,0,3.9c0,1.2,0,2.4,0,3.7c0,0.9-0.7,1.5-1.6,1.2c-0.5-0.1-0.7-0.5-0.7-1.1c0-1.2,0-2.4,0-3.6
		C2.6,38.2,2.6,36.9,2.6,35.6C2.6,35.6,2.6,35.6,2.6,35.6z"/>
	<path id="XMLID_33_" class="st0" d="M42.3,36.4c0-2.4,0-4.8,0-7.2c0-0.1,0-0.3,0-0.4c-0.1-0.1-0.2-0.3-0.3-0.4
		c-0.1,0.1-0.3,0.3-0.3,0.4c0,1,0,2.1,0,3.1c0,1,0,2,0,2.9c0,0.6-0.2,0.8-0.7,0.8c-0.4,0-0.8-0.3-0.8-0.8c0-1.2,0-2.3,0-3.5
		c0-1.3,0-2.5,0-3.8c0-1.1,0.7-1.8,1.8-1.8c1.9,0,3.8,0,5.7,0c0.9,0,1.9,0.8,1.9,1.8c-0.1,2.4,0,4.8,0,7.2c0,0.7-0.4,1-1,0.8
		c-0.4-0.1-0.5-0.4-0.5-0.8c0-1.9,0-3.8,0-5.7c0-0.1,0-0.2,0-0.3c-0.1-0.2-0.2-0.3-0.3-0.5c-0.1,0.2-0.2,0.3-0.2,0.5
		c0,2,0,3.9,0,5.9c0,2.9,0,5.8,0,8.7c0,0.1,0,0.3,0,0.4c-0.1,0.7-0.5,1.1-1.1,1.1c-0.7,0-1.1-0.4-1.1-1.2c0-2.1,0-4.3,0-6.4
		c0-0.4,0-0.8,0-1.2c0-0.2-0.2-0.3-0.3-0.5c-0.1,0.2-0.2,0.3-0.2,0.5c0,2.5,0,5,0,7.5c0,1-0.7,1.6-1.6,1.3c-0.5-0.2-0.7-0.5-0.7-1
		c0-1.2,0-2.3,0-3.5C42.3,39.1,42.3,37.8,42.3,36.4C42.3,36.4,42.3,36.4,42.3,36.4z"/>
	<path id="XMLID_32_" class="st0" d="M22,30.7c0,0.2-0.1,0.4-0.1,0.5c0,0.9,0,1.8,0,2.7c0,0.7-0.3,1-0.8,1c-0.5,0-0.8-0.4-0.8-1.1
		c0-1.5,0-3,0-4.4c0-0.4-0.1-0.8-0.4-1.1c-2-1.9-3.9-3.9-5.9-5.9c-0.1-0.1-0.3-0.4-0.2-0.5c0.2-0.3,0.5-0.5,0.8-0.7
		c0,0,0.2,0.1,0.3,0.2c6.6,6.6,13.3,13.2,19.9,19.9c0.2,0.2,0.3,0.4,0.7,0.7c-0.3,0.2-0.5,0.5-0.8,0.7c-0.1,0.1-0.4,0-0.5-0.1
		c-0.6-0.6-1.2-1.2-1.8-1.8c-1.4-1.5-2.9-2.9-4.3-4.4c0,0-0.1-0.1-0.2-0.2c0,0.3-0.1,0.4-0.1,0.6c0,2,0,4,0,6c0,0.8-0.4,1.3-1.1,1.5
		c-0.4,0.1-1.2-0.5-1.3-1c0-0.2,0-0.5,0-0.7c0-2.3,0-4.7,0-7c0-0.1,0-0.2,0-0.3c0-0.1-0.1-0.2-0.2-0.3c-0.1,0.1-0.2,0.2-0.2,0.3
		c0,0.1,0,0.3,0,0.4c0,2.4,0,4.8,0,7.1c0,0.6-0.1,1.1-0.8,1.4c-0.7,0.3-1.6-0.2-1.7-1c0-0.2,0-0.4,0-0.6c0-3.8,0-7.5,0-11.3
		c0-0.2,0-0.4-0.1-0.6C22.1,30.7,22,30.7,22,30.7z"/>
	<path id="XMLID_31_" class="st0" d="M42.4,14.8c0.2-1,0.4-1.9,0.7-2.8c0.1-0.6,0.3-1.1,0.4-1.7c0.1-0.5,0.3-0.6,0.8-0.5
		c0.2,0.1,0.5,0.2,0.6,0.3c-0.3,1.2-0.5,2.2-0.7,3.2c-0.3,1.3-0.6,2.6-0.9,3.9c-0.1,0.4-0.2,0.5-0.7,0.4c-1.7-0.5-3.4-1-5.1-1.6
		c-0.5-0.2-1-0.3-1.5-0.5c-0.5-0.2-0.5-0.3-0.4-0.9c0.1-0.4,0.4-0.5,0.7-0.4c1.3,0.4,2.6,0.8,3.9,1.2c0.3,0.1,0.6,0.2,0.9,0.3
		c-0.1-0.2-0.1-0.3-0.1-0.4c-2.1-3.4-4.9-5.9-8.5-7.5c-3.4-1.5-6.9-2-10.5-1.5c-3.7,0.4-7,2-9.9,4.4c-2.3,1.9-4.1,4.2-5.3,6.9
		c-0.1,0.3-0.3,0.4-0.6,0.3c-0.8-0.3-0.8-0.4-0.5-1.1c2.1-4.3,5.2-7.5,9.4-9.7c3.8-1.9,7.8-2.6,12-2.1c5.6,0.7,10.2,3.3,13.7,7.7
		c0.4,0.5,0.8,1.1,1.1,1.6C42.1,14.5,42.2,14.6,42.4,14.8z"/>
	<path id="XMLID_30_" class="st0" d="M29.5,34.3c-0.4-0.4-0.8-0.8-1.2-1.1c-0.5-0.4-0.4-0.8-0.4-1.3c0-1.2,0-2.5,0-3.7
		c0-0.2-0.1-0.3-0.2-0.5c-0.3,1.5-0.1,3-0.2,4.6c-0.1,0-0.1,0.1-0.2,0.1c-0.2-0.2-0.3-0.4-0.5-0.6c-1.9-1.9-3.8-3.9-5.7-5.8
		c-0.5-0.5-0.4-0.7,0.2-0.9c0.2-0.1,0.4-0.1,0.6-0.1c2,0,3.9,0,5.9,0c1,0,1.7,0.7,1.7,1.6c0,2.4,0,4.9,0,7.3
		C29.6,33.9,29.5,34,29.5,34.3z"/>
	<path id="XMLID_29_" class="st0" d="M22.7,22.3c-0.1-1.2,1.1-2.2,2.1-2.2c1.2,0,2.2,1,2.2,2.2c0,1.2-1,2.2-2.2,2.2
		C23.7,24.6,22.7,23.6,22.7,22.3z"/>
	<path id="XMLID_28_" class="st0" d="M3.1,22.3c0-1.2,0.9-2.1,2.1-2c1.2,0,2.1,1,2.1,2.1c0,1.2-1,2.1-2.2,2.1
		C4,24.4,3.1,23.5,3.1,22.3z"/>
	<path id="XMLID_27_" class="st0" d="M47,23.2c0,1.2-0.9,2.1-2.1,2.1c-1.2,0-2.1-0.9-2.1-2.1c0-1.2,0.9-2.1,2.1-2.1
		C46,21.1,47,22,47,23.2z"/>
</g>
</svg>
